<?xml version="1.0" encoding="utf-8"?>
<!-- Generator: Adobe Illustrator 24.0.2, SVG Export Plug-In . SVG Version: 6.00 Build 0)  -->
<svg version="1.1" id="Livello_1" xmlns="http://www.w3.org/2000/svg" xmlns:xlink="http://www.w3.org/1999/xlink" x="0px" y="0px"
	 viewBox="0 0 474 214" style="enable-background:new 0 0 474 214;" xml:space="preserve">
<style type="text/css">
	.st0{fill:none;stroke:#FFFFFF;stroke-width:31;stroke-miterlimit:10;}
	.st1{fill:none;stroke:#7367F0;stroke-width:24;stroke-miterlimit:10;}
	.st2{fill:#7367F0;stroke:#7367F0;stroke-miterlimit:10;}
	.st3{fill:#7367F0;stroke:#7367F0;stroke-width:6;stroke-miterlimit:10;}
	.st4{fill:none;stroke:#7367F0;stroke-width:40;stroke-miterlimit:10;}
</style>
<g id="Scritta">
	<path class="st0" d="M780.9,65.1"/>
	<g>
		<g>
			<circle class="st1" cx="260.7" cy="120.3" r="30"/>
			<rect x="279.2" y="120.4" class="st2" width="23" height="47.1"/>
		</g>
		<g>
			<path class="st1" d="M220.9,155.7L220.9,155.7c-18.6,0-33.8-15.2-33.8-33.8V42"/>
		</g>
		<circle class="st1" cx="348.6" cy="125.8" r="30"/>
		<rect x="306.7" y="41.8" class="st2" width="23.4" height="81.8"/>
		<g>
			<g>
				<path class="st3" d="M413.3,139.2c2.2,7,7.4,11.5,19.9,11.5c11.7,0,15.1-3.8,15.1-9c0-5.6-3.5-8.7-19.4-11.6
					c-26.2-4.8-31-13.9-31-24.7c0-16.1,14.5-24.3,32.4-24.3c25.9,0,32.9,14.2,33.8,23.6h-18.3c-1.1-4-3.6-9.3-16-9.3
					c-8.7,0-13.2,3-13.2,8.2c0,4.7,3.1,7,17.3,9.7c28.7,5.5,33.2,14.7,33.2,26.4c0,14-10.3,25.2-35.6,25.2
					c-23.6,0-34.3-11.2-36.5-25.8L413.3,139.2L413.3,139.2z"/>
			</g>
		</g>
	</g>
	<g>
		<g>
			<g>
				<ellipse class="st4" cx="81" cy="83.2" rx="58" ry="59.6"/>
			</g>
		</g>
		<path class="st4" d="M189,190.3h-5.8c-24.5,0-44.6-20-44.6-44.6V85.8"/>
	</g>
</g>
</svg>
