<?xml version="1.0" encoding="utf-8"?><svg version="1.1" xmlns="http://www.w3.org/2000/svg" xmlns:xlink="http://www.w3.org/1999/xlink" x="0px" y="0px" viewBox="0 0 500 424.7" xml:space="preserve"><g id="Objects"><g><linearGradient id="SVGID_1_" gradientUnits="userSpaceOnUse" x1="249.9563" y1="418.0238" x2="249.9563" y2="145.2412"><stop offset="0.1341" style="stop-color:#32738C"/><stop offset="0.5224" style="stop-color:#D6E8F5"/><stop offset="0.743" style="stop-color:#D9EAF6"/><stop offset="0.9273" style="stop-color:#E4F2FB"/><stop offset="1" style="stop-color:#EAF6FE"/></linearGradient><path fill="url(#SVGID_1_)" d="M477,418H22.9c-8,0-14.6-6.6-14.6-14.6V156.5c0-8,6.6-8.9,14.6-8.9H477c4,0,7.7-4.1,10.3-1.4 c2.7,2.6,4.3,6.3,4.3,10.3v246.9C491.7,411.4,485.1,418,477,418z"/><linearGradient id="SVGID_2_" gradientUnits="userSpaceOnUse" x1="250.1613" y1="157.5103" x2="250.1613" y2="8.0475"><stop offset="0" style="stop-color:#C4E0F1"/><stop offset="0.1085" style="stop-color:#D6E8F5"/><stop offset="0.126" style="stop-color:#DAEAF6"/><stop offset="0.2249" style="stop-color:#EBF4FA"/><stop offset="0.3476" style="stop-color:#F6FAFD"/><stop offset="0.5204" style="stop-color:#FDFEFF"/><stop offset="1" style="stop-color:#FFFFFF"/></linearGradient><path fill="url(#SVGID_2_)" d="M483.6,143.5L253.1,8.8c-1.8-1.1-4-1.1-5.8,0L16.3,143.5c-2.3,1.3-6.2,7.2-5.5,9.7c0.7,2.5,3,4.3,5.6,4.3 h467.5c2.6,0,4.9-1.8,5.6-4.3C490.2,150.7,485.8,144.8,483.6,143.5z"/><g><linearGradient id="SVGID_3_" gradientUnits="userSpaceOnUse" x1="249.9563" y1="418.0238" x2="249.9563" y2="143.466"><stop offset="0" style="stop-color:#FFFFFF"/><stop offset="0.3656" style="stop-color:#FCFDFE"/><stop offset="0.6318" style="stop-color:#F3F8FC"/><stop offset="0.8658" style="stop-color:#E3EFF8"/><stop offset="1" style="stop-color:#D6E8F5"/></linearGradient><path fill="url(#SVGID_3_)" d="M483.6,143.5L250,279.9L16.3,143.5c-4.8,2.4-8.1,7.3-8.1,13v246.9c0,8,6.6,14.6,14.6,14.6H477 c8,0,14.6-6.6,14.6-14.6V156.5c0-4-1.6-7.7-4.3-10.3C486.3,145,485,144.2,483.6,143.5z"/></g><g><linearGradient id="SVGID_4_" gradientUnits="userSpaceOnUse" x1="172.098" y1="209.29" x2="339.219" y2="209.29"><stop offset="0" style="stop-color:#FFFFFF"/><stop offset="8.845216e-02" style="stop-color:#E9F4FA"/><stop offset="0.1915" style="stop-color:#D8EBF6"/><stop offset="0.3199" style="stop-color:#CDE5F3"/><stop offset="0.5" style="stop-color:#C6E1F1"/><stop offset="1" style="stop-color:#C4E0F1"/></linearGradient><circle fill="url(#SVGID_4_)" cx="255.7" cy="209.3" r="83.6"/><ellipse transform="matrix(0.7071 -0.7071 0.7071 0.7071 -74.7199 238.19)" fill="#00878E" cx="250.2" cy="209.3" rx="83.6" ry="83.6"/><path fill="#00A0B1" d="M324.7,209.3c0,41.2-33.4,74.5-74.5,74.5c-41.2,0-74.5-33.4-74.5-74.5s33.4-74.5,74.5-74.5 C291.3,134.7,324.7,168.1,324.7,209.3z"/><g><linearGradient id="SVGID_5_" gradientUnits="userSpaceOnUse" x1="207.9259" y1="209.2903" x2="292.395" y2="209.2903"><stop offset="0" style="stop-color:#C4E0F1"/><stop offset="0.1085" style="stop-color:#D6E8F5"/><stop offset="0.126" style="stop-color:#DAEAF6"/><stop offset="0.2249" style="stop-color:#EBF4FA"/><stop offset="0.3476" style="stop-color:#F6FAFD"/><stop offset="0.5204" style="stop-color:#FDFEFF"/><stop offset="1" style="stop-color:#FFFFFF"/></linearGradient><path fill="url(#SVGID_6_)" d="M237.1,244.5c-0.1,0-0.3,0-0.4,0c-2.7-0.1-5.3-1.5-6.9-3.7L209.6,213c-2.9-4.1-2-9.7,2-12.6 c4-2.9,9.7-2,12.6,2l13.5,18.6l38.8-43.8c3.3-3.7,9-4.1,12.8-0.8c3.7,3.3,4.1,9,0.8,12.8l-46.3,52.3 C242.1,243.4,239.7,244.5,237.1,244.5z"/></g><polygon style="opacity:.35" fill="#00878E" points="168.1,225.3 250,273.8 332.2,225.3 329.2,244.5 250.2,283.8 170.2,238.7 "/></g><g><linearGradient id="SVGID_6_" gradientUnits="userSpaceOnUse" x1="129.1006" y1="413.3777" x2="129.1006" y2="-126.4126"><stop offset="0" style="stop-color:#D6E8F5"/><stop offset="1.965255e-02" style="stop-color:#DAEAF6"/><stop offset="0.1306" style="stop-color:#EBF4FA"/><stop offset="0.2683" style="stop-color:#F6FAFD"/><stop offset="0.4621" style="stop-color:#FDFEFF"/><stop offset="1" style="stop-color:#FFFFFF"/></linearGradient><path fill="url(#SVGID_6_)" d="M16.3,143.5c-4.8,2.4-8.1,7.3-8.1,13v246.9c0,3.9,1.5,7.4,4,10L250,279.9L16.3,143.5z"/></g><g><linearGradient id="SVGID_7_" gradientUnits="userSpaceOnUse" x1="-176.2142" y1="413.3777" x2="-176.2142" y2="-126.4126" gradientTransform="matrix(-1 0 0 1 194.5967 0)"><stop offset="0" style="stop-color:#D6E8F5"/><stop offset="1.965255e-02" style="stop-color:#DAEAF6"/><stop offset="0.1306" style="stop-color:#EBF4FA"/><stop offset="0.2683" style="stop-color:#F6FAFD"/><stop offset="0.4621" style="stop-color:#FDFEFF"/><stop offset="1" style="stop-color:#FFFFFF"/></linearGradient><path fill="url(#SVGID_7_)" d="M483.6,143.5c4.8,2.4,8.1,7.3,8.1,13v246.9c0,3.9-1.5,7.4-4,10L250,279.9L483.6,143.5z"/></g><linearGradient id="SVGID_8_" gradientUnits="userSpaceOnUse" x1="248.3623" y1="413.3777" x2="248.3623" y2="279.9355"><stop offset="0" style="stop-color:#FFFFFF;stop-opacity:0"/><stop offset="0.4126" style="stop-color:#E7F2F9;stop-opacity:0.5227"/><stop offset="0.7893" style="stop-color:#D6E8F5"/><stop offset="0.9832" style="stop-color:#D6E8F5"/></linearGradient><polygon fill="url(#SVGID_8_)" points="250,279.9 12.3,413.4 484.5,413.4 "/></g></g></svg>