<?xml version="1.0" encoding="utf-8"?>
<!-- Generator: Adobe Illustrator 24.0.2, SVG Export Plug-In . SVG Version: 6.00 Build 0)  -->
<svg version="1.1" id="Livello_1" xmlns="http://www.w3.org/2000/svg" xmlns:xlink="http://www.w3.org/1999/xlink" x="0px" y="0px"
	 viewBox="0 0 48 48" style="enable-background:new 0 0 48 48;" xml:space="preserve">
<style type="text/css">
	.st0{fill:#FF6469;}
	.st1{fill:#D2555F;}
</style>
<path class="st0" d="M24,29.2c-1.9,0-4.1,3-4.1,6.7c0,4.8,3.9,11.7,4,12C23.9,48,24,48,24,48c0.1,0,0.2,0,0.2-0.1
	c0.3-0.3,6.4-7.2,6.4-12C30.7,32.2,27.7,29.2,24,29.2z M24,39.4c-1.9,0-3.5-1.6-3.5-3.5c0-1.9,1.6-3.5,3.5-3.5s3.5,1.6,3.5,3.5
	S25.9,39.4,24,39.4z"/>
<path class="st1" d="M23.9,47.9c-0.1-0.3-4-7.2-4-12c0-3.7,2.2-6.7,4.1-6.7c-3.7,0-6.7,3-6.7,6.7c0,4.8,6.2,11.7,6.4,12
	C23.8,48,23.9,48,24,48C24,48,23.9,48,23.9,47.9z"/>
</svg>
