<?xml version="1.0" encoding="utf-8"?>
<!-- Generator: Adobe Illustrator 24.0.2, SVG Export Plug-In . SVG Version: 6.00 Build 0)  -->
<svg version="1.1" id="Livello_1" xmlns="http://www.w3.org/2000/svg" xmlns:xlink="http://www.w3.org/1999/xlink" x="0px" y="0px"
	 viewBox="0 0 48 48" style="enable-background:new 0 0 48 48;" xml:space="preserve">
<style type="text/css">
	.st0{fill:#FF6469;}
	.st1{fill:#D2555F;}
</style>
<path class="st0" d="M24,0c-4.9,0-10.6,7.7-10.6,17.1c0,12.2,9.9,29.9,10.3,30.6c0.1,0.2,0.2,0.3,0.3,0.3c0.2,0,0.5-0.1,0.6-0.3
	c0.7-0.7,16.5-18.5,16.5-30.6C41.1,7.7,33.4,0,24,0z M24,26c-4.9,0-8.9-4-8.9-8.9s4-8.9,8.9-8.9s8.9,4,8.9,8.9S28.9,26,24,26z"/>
<path class="st1" d="M23.7,47.7C23.3,47,13.4,29.3,13.4,17.1C13.4,7.7,19.1,0,24,0C14.6,0,6.9,7.7,6.9,17.1
	c0,12.2,15.8,29.9,16.5,30.6c0.2,0.2,0.4,0.3,0.6,0.3C23.9,48,23.8,47.9,23.7,47.7z"/>
</svg>
